<svg id="visual" viewBox="0 0 900 600" width="900" height="600" xmlns="http://www.w3.org/2000/svg"
    xmlns:xlink="http://www.w3.org/1999/xlink" version="1.1">
    <path
        id="wave1"
        d="M0 55L25 59C50 63 100 71 150 77C200 83 250 87 300 89C350 91 400 91 450 90C500 89 550 87 600 82C650 77 700 69 750 65C800 61 850 61 875 61L900 61L900 0L875 0C850 0 800 0 750 0C700 0 650 0 600 0C550 0 500 0 450 0C400 0 350 0 300 0C250 0 200 0 150 0C100 0 50 0 25 0L0 0Z"
        fill="#12cbc4"></path>
    <path
        id="wave2"
        d="M0 223L25 230C50 237 100 251 150 253C200 255 250 245 300 249C350 253 400 271 450 276C500 281 550 273 600 264C650 255 700 245 750 233C800 221 850 207 875 200L900 193L900 59L875 59C850 59 800 59 750 63C700 67 650 75 600 80C550 85 500 87 450 88C400 89 350 89 300 87C250 85 200 81 150 75C100 69 50 61 25 57L0 53Z"
        fill="#00a1c7"></path>
    <path
        id="wave3"
        d="M0 409L25 409C50 409 100 409 150 414C200 419 250 429 300 434C350 439 400 439 450 431C500 423 550 407 600 404C650 401 700 411 750 409C800 407 850 393 875 386L900 379L900 191L875 198C850 205 800 219 750 231C700 243 650 253 600 262C550 271 500 279 450 274C400 269 350 251 300 247C250 243 200 253 150 251C100 249 50 235 25 228L0 221Z"
        fill="#0074b2"></path>
    <path
        id="wave4"
        d="M0 499L25 500C50 501 100 503 150 502C200 501 250 497 300 500C350 503 400 513 450 511C500 509 550 495 600 490C650 485 700 489 750 487C800 485 850 477 875 473L900 469L900 377L875 384C850 391 800 405 750 407C700 409 650 399 600 402C550 405 500 421 450 429C400 437 350 437 300 432C250 427 200 417 150 412C100 407 50 407 25 407L0 407Z"
        fill="#004590"></path>
    <path
        id="wave5"
        d="M0 601L25 601C50 601 100 601 150 601C200 601 250 601 300 601C350 601 400 601 450 601C500 601 550 601 600 601C650 601 700 601 750 601C800 601 850 601 875 601L900 601L900 467L875 471C850 475 800 483 750 485C700 487 650 483 600 488C550 493 500 507 450 509C400 511 350 501 300 498C250 495 200 499 150 500C100 501 50 499 25 498L0 497Z"
        fill="#1b1464"></path>
</svg>